<svg id="Calque_1" data-name="Calque 1" xmlns="http://www.w3.org/2000/svg" viewBox="0 0 506.71 442.76"><defs><style>.cls-1{fill:#607d8b;}.cls-2{fill:#37474f;}.cls-3{fill:#ef4438;}</style></defs><title>comete</title><path class="cls-1" d="M105.56,385.26c3.71-2.06,7.48-4,11.24-6q6.94-3.65,13.9-7.28c3.76-2,7.5-4,11.28-5.92,4.86-2.49,9.72-5,14.63-7.38,5.38-2.63,10.8-5.18,16.24-7.7,8.6-4,17.14-8.15,25.87-11.87,15.23-6.5,30.44-13.09,45.92-19q26.31-10,53.1-18.71c14.52-4.74,29.24-8.89,44-12.81a711.79,711.79,0,0,1,87.4-17.28q13.73-1.85,27.51-3.12c-69.53-76.13-186.43-90.67-273.15-29.95A207.88,207.88,0,0,0,95.41,391.21C98.8,389.24,102.13,387.16,105.56,385.26Z" transform="translate(-29.78 -200.59)"/><path class="cls-1" d="M477.42,334.22c-17.33,31-35.69,61.38-55.75,90.7-10.18,14.88-20.39,29.75-31.14,44.21-14.84,20-30.4,39.38-47.15,57.8-9.09,10-18.48,19.71-27.75,29.54a3.14,3.14,0,0,1-.77.45l-0.39-.31c1.71-4.29,3.46-8.57,5.12-12.88,6.8-17.66,12.91-35.54,15.8-54.34A33.08,33.08,0,0,0,332,469c-5.14-10.17-13.46-17.25-22.87-23.2-15.19-9.61-31.72-16.32-48.82-21.49-16.25-4.91-32.62-9.62-49.19-13.25-22.84-5-45.88-9.18-68.92-13.26-14-2.48-28.21-4.12-42.33-6.11-1.47-.21-3-0.07-4.46-0.25a207.48,207.48,0,0,0,36.94,137c66,94.25,195.9,117.16,290.15,51.16,86.28-60.42,112.76-174.39,66-265.54Q483,324.18,477.42,334.22Z" transform="translate(-29.78 -200.59)"/><g id="Calque_4" data-name="Calque 4"><path class="cls-2" d="M533.61,247.81c-7.42-.19-14.84-0.56-22.25-0.44-12,.2-24,0.42-35.9,1.19-12.88.83-25.79,1.78-38.55,3.6-17.67,2.52-35.31,5.47-52.8,9-15.71,3.21-31.25,7.31-46.77,11.37-10.47,2.74-20.79,6-31.15,9.18-5.7,1.74-11.33,3.69-17,5.58-8.95,3-17.95,5.87-26.8,9.13-11.45,4.2-22.79,8.72-34.16,13.12-5.24,2-10.49,4.07-15.68,6.23s-10.45,4.54-15.68,6.81c-4.39,1.91-8.8,3.77-13.17,5.72-4.94,2.2-9.84,4.47-14.76,6.71-3.95,1.8-7.92,3.54-11.83,5.4-4.27,2-8.48,4.19-12.72,6.27-4.71,2.3-9.45,4.55-14.15,6.86-3.64,1.79-7.24,3.65-10.87,5.45-3.84,1.91-7.71,3.74-11.54,5.68-4.36,2.21-8.69,4.48-13,6.75q-4.49,2.36-8.95,4.79c-3.18,1.73-6.31,3.54-9.5,5.23-3.39,1.8-6.88,3.43-10.25,5.27s-6.95,4-10.41,6c-1.63.94-3.24,1.94-4.9,2.83-4,2.14-8,4.18-11.95,6.38-3,1.68-5.9,3.56-9.08,5.5,0.61,0.08,1,.17,1.46.19,5.21,0.22,10.43.39,15.64,0.65,5.73,0.28,11.46.64,17.2,1,5,0.29,9.94.57,14.91,0.92,5.51,0.38,11,.82,16.53,1.27,6.41,0.51,12.83,1,19.23,1.6s12.8,1.45,19.2,2.18c6,0.68,12.07,1.24,18.08,2.06s11.74,1.74,17.57,2.83c14.63,2.74,29.26,5.48,43.83,8.49q8.41,1.74,16.67,4.15c9.71,2.83,19.52,5.53,29,9.1,9.79,3.7,19.39,8,28.89,12.41,8.15,3.81,15.58,8.64,20.56,16.62a28.36,28.36,0,0,1,3.86,10.27c1.28,7.17-.74,14.14-2.22,20.93a101.29,101.29,0,0,1-4.31,14.58C300.68,530.2,295,543.54,289,556.73c-4.5,10-9.32,19.79-14.33,29.51-5.51,10.69-11.36,21.2-17.11,31.76-2.84,5.21-5.82,10.34-8.71,15.52-1.73,3.11-3.41,6.25-5.36,9.83,129.24-108.58,226.09-240.48,293-395A18.37,18.37,0,0,0,533.61,247.81ZM510,273.62c-10.83,20.22-21.41,40.58-32.61,60.59-17.33,31-35.69,61.38-55.75,90.7-10.18,14.88-20.39,29.75-31.14,44.21-14.84,20-30.4,39.38-47.15,57.8-9.09,10-18.48,19.71-27.75,29.54a3.14,3.14,0,0,1-.77.45l-0.39-.31c1.71-4.29,3.46-8.57,5.12-12.88,6.8-17.66,12.91-35.54,15.8-54.34A33.08,33.08,0,0,0,332,469c-5.14-10.17-13.46-17.25-22.87-23.2-15.19-9.61-31.72-16.32-48.82-21.49-16.25-4.91-32.62-9.62-49.19-13.25-22.84-5-45.88-9.18-68.92-13.26-14-2.48-28.21-4.12-42.33-6.11-1.58-.22-3.22,0-4.8-0.29,3.51-2,7-4.2,10.51-6.17,3.71-2.06,7.48-4,11.24-6q6.94-3.65,13.9-7.28c3.76-2,7.5-4,11.28-5.92,4.86-2.49,9.72-5,14.63-7.38,5.38-2.63,10.8-5.18,16.24-7.7,8.6-4,17.14-8.15,25.87-11.87,15.23-6.5,30.44-13.09,45.92-19q26.31-10,53.1-18.71c14.52-4.74,29.24-8.89,44-12.81a711.79,711.79,0,0,1,87.4-17.28,651.12,651.12,0,0,1,82-5.92c0.8,0,1.6.07,2.86,0.13C512.58,268.51,511.38,271.1,510,273.62Z" transform="translate(-29.78 -200.59)"/></g><path class="cls-3" d="M430.37,309.26c-4.94-5.89-12-9.89-19.41-13.5-19.06-9.32-35.77-2.37-52.11,6.1-10.65,5.52-20.32,12.91-30.43,19.46l-0.33.78c6.79-1.57,13.53-3.43,20.38-4.63s13.67-1.73,21-2.62c-6.54,4.68-12.28,8.54-17.75,12.75-7.19,5.53-14,11.53-21.29,16.95-8.85,6.6-18,7.27-27.55.89-2.15-1.44-5.12-1.67-7.71-2.45l-0.53,2.1c14.43,10.53,29.51,18.52,48.94,11.25-4.22,6.78-9.22,11.95-16.13,15.09-10.52,4.79-21.22,9.24-31.5,14.5-8.42,4.32-15.45,17.44-14.27,26,1.85-3.21,3.62-5.6,4.71-8.28,3.83-9.43,12.13-12.56,20.88-13.94,13.05-2.06,26.27-3.05,39.42-4.5,10.72-1.18,20.87-3.5,27.2-13.68-3,12.25-10.87,20.54-21.37,27,13,0.2,25-3,37-7.1,12.8-4.41,18.74-15.56,26.7-24.9-0.59,10.83-10.13,16.31-15.26,25.06,14-3.44,22.17-13.05,30.69-22.37,6.13-6.7,10.8-13.5,11.84-23.24C445.12,331.23,439,319.59,430.37,309.26Zm-1,27.7a22.68,22.68,0,1,1-8.84-30.83A22.68,22.68,0,0,1,429.38,337Z" transform="translate(-29.78 -200.59)"/></svg>